<?xml version="1.0" standalone="no"?>
<!DOCTYPE svg PUBLIC "-//W3C//DTD SVG 20010904//EN"
 "http://www.w3.org/TR/2001/REC-SVG-20010904/DTD/svg10.dtd">
<svg version="1.0" xmlns="http://www.w3.org/2000/svg"
 width="297.000000pt" height="297.000000pt" viewBox="0 0 297.000000 297.000000"
 preserveAspectRatio="xMidYMid meet">

<g transform="translate(0.000000,297.000000) scale(0.100000,-0.100000)"
fill="#000000" stroke="none">
<path d="M1720 2295 c9 -11 9 -15 1 -15 -7 0 -9 -4 -6 -10 8 -13 45 -13 45 0
0 7 6 7 19 0 27 -14 31 -13 24 6 -4 10 -14 14 -30 11 -15 -3 -27 1 -30 9 -3 8
-12 14 -20 14 -13 0 -13 -3 -3 -15z"/>
<path d="M1585 2290 c-2 -4 14 -6 36 -6 21 1 39 5 39 9 0 9 -69 6 -75 -3z"/>
<path d="M1835 2278 c3 -8 23 -13 51 -14 54 -1 46 11 -14 21 -33 5 -41 4 -37
-7z"/>
<path d="M1226 2261 c-18 -7 -18 -8 -3 -14 9 -3 17 -2 17 3 0 6 7 10 16 10 9
0 12 -5 8 -12 -4 -7 -3 -8 4 -4 33 20 -1 33 -42 17z"/>
<path d="M1146 2245 c-4 -13 -2 -14 14 -5 23 13 26 20 6 20 -8 0 -16 -7 -20
-15z"/>
<path d="M946 2242 c-3 -5 1 -9 9 -9 8 0 12 4 9 9 -3 4 -7 8 -9 8 -2 0 -6 -4
-9 -8z"/>
<path d="M1856 2214 c-26 -18 -17 -24 12 -8 13 6 20 14 15 17 -4 3 -17 -1 -27
-9z"/>
<path d="M1969 2213 c-12 -15 -12 -16 4 -10 9 3 17 2 17 -4 0 -6 6 -7 13 -3 8
5 7 2 -2 -10 -8 -9 -17 -13 -20 -8 -12 18 -55 35 -59 23 -2 -6 -10 -11 -19
-11 -13 0 -13 -2 1 -15 16 -16 31 -21 22 -7 -3 5 8 6 25 4 16 -2 29 -8 29 -12
0 -5 15 -7 33 -5 17 2 24 1 15 -1 -10 -3 -18 -10 -18 -15 0 -8 33 3 48 17 5 4
-60 74 -68 74 -4 0 -14 -8 -21 -17z"/>
<path d="M1498 2203 c7 -3 16 -2 19 1 4 3 -2 6 -13 5 -11 0 -14 -3 -6 -6z"/>
<path d="M2158 2178 c9 -9 9 -15 0 -26 -10 -11 -6 -20 22 -43 39 -32 60 -37
60 -14 0 17 9 19 30 5 12 -7 12 -12 2 -22 -9 -9 -12 -9 -12 2 0 10 -3 11 -11
3 -9 -9 -8 -16 5 -28 9 -9 16 -13 16 -8 0 4 5 1 10 -7 7 -11 10 -6 10 21 0 29
-7 41 -37 65 -65 51 -129 86 -95 52z"/>
<path d="M2072 2168 c3 -7 19 -14 37 -15 29 -3 31 -1 17 12 -18 18 -59 20 -54
3z"/>
<path d="M2125 2096 c11 -8 23 -12 28 -9 13 8 -3 23 -26 23 -20 0 -20 0 -2
-14z"/>
<path d="M2140 2040 c-13 -8 -13 -10 2 -10 9 0 20 5 23 10 8 13 -5 13 -25 0z"/>
<path d="M2210 2040 c8 -5 20 -10 25 -10 6 0 3 5 -5 10 -8 5 -19 10 -25 10 -5
0 -3 -5 5 -10z"/>
<path d="M2340 2020 c8 -16 8 -20 -4 -20 -8 0 -18 5 -21 10 -4 6 -19 9 -35 8
-25 -2 -27 -5 -19 -25 13 -36 0 -79 -28 -92 -22 -10 -25 -9 -30 9 -7 28 -25
25 -21 -3 1 -13 -7 -33 -19 -46 l-22 -24 -10 26 c-13 35 -25 35 -17 0 5 -17 3
-29 -6 -34 -10 -7 -9 -9 5 -9 11 0 17 -8 17 -25 0 -20 -5 -25 -24 -25 -21 0
-24 4 -21 33 4 39 -9 68 -18 43 -4 -10 -13 -13 -23 -9 -12 4 -15 3 -10 -5 4
-7 14 -12 23 -12 10 0 13 -6 9 -16 -3 -9 -6 -20 -6 -25 0 -5 -6 -4 -14 3 -12
11 -12 14 2 19 13 5 13 7 -4 11 -16 4 -20 0 -22 -19 -1 -14 -5 -29 -8 -34 -8
-13 -34 9 -34 28 0 12 -3 12 -16 -1 -21 -21 -23 -20 -17 7 3 16 2 18 -5 8 -7
-9 -11 -10 -17 -2 -5 9 -10 9 -21 0 -7 -6 -11 -15 -8 -20 3 -5 -2 -6 -10 -3
-11 4 -16 0 -16 -10 0 -9 -8 -16 -19 -16 -16 0 -18 -5 -12 -27 6 -21 17 -30
47 -39 21 -6 38 -16 37 -22 -6 -27 90 -21 149 9 10 5 29 9 42 9 14 0 28 5 31
10 3 6 15 10 25 10 10 0 23 7 28 15 11 20 39 10 48 -17 7 -24 21 -13 26 22 2
19 10 26 31 28 16 2 35 -2 43 -9 9 -7 14 -8 14 -1 0 6 -4 14 -10 17 -17 11
-11 24 19 39 30 16 71 68 49 64 -7 -2 -13 10 -14 27 -5 57 -13 84 -36 120 -24
37 -46 49 -28 15z m-16 -36 c4 -10 1 -14 -6 -12 -15 5 -23 28 -10 28 5 0 13
-7 16 -16z m-394 -254 c0 -17 -26 -40 -44 -40 -13 0 -5 39 10 54 18 19 34 12
34 -14z m29 -10 c0 -10 -3 -8 -9 5 -12 27 -12 43 0 25 5 -8 9 -22 9 -30z m219
12 c3 -19 -1 -23 -15 -20 -10 2 -19 14 -21 26 -3 19 1 23 15 20 10 -2 19 -14
21 -26z"/>
<path d="M1500 2019 c0 -5 5 -7 10 -4 6 3 10 8 10 11 0 2 -4 4 -10 4 -5 0 -10
-5 -10 -11z"/>
<path d="M1820 1926 c0 -2 7 -6 15 -10 8 -3 15 -1 15 4 0 6 -7 10 -15 10 -8 0
-15 -2 -15 -4z"/>
<path d="M1418 1873 c7 -3 16 -2 19 1 4 3 -2 6 -13 5 -11 0 -14 -3 -6 -6z"/>
<path d="M1688 1862 c-19 -4 -24 -17 -10 -26 11 -7 35 10 31 21 -2 5 -12 7
-21 5z"/>
<path d="M1865 1823 c-11 -3 -24 -9 -30 -15 -7 -6 0 -7 19 -2 21 5 27 4 22 -5
-11 -17 3 -13 26 9 21 19 21 20 2 19 -10 -1 -28 -3 -39 -6z"/>
<path d="M1576 1794 c-15 -15 -21 -34 -11 -34 12 0 43 40 35 45 -4 3 -16 -2
-24 -11z"/>
<path d="M2475 1773 c-3 -16 -13 -35 -21 -44 -9 -10 -13 -29 -11 -45 3 -24 8
-28 28 -26 13 2 28 8 33 12 5 5 15 2 23 -6 21 -20 32 -17 25 8 -3 14 -1 19 6
14 17 -10 52 12 51 32 0 10 -3 12 -6 5 -2 -7 -20 -13 -39 -13 -19 0 -33 -5
-31 -11 3 -13 -61 -20 -69 -8 -3 5 2 12 11 15 9 4 14 13 11 20 -3 7 -1 16 4
19 13 8 13 55 1 55 -5 0 -12 -12 -16 -27z"/>
<path d="M2375 1779 c-4 -6 0 -9 10 -7 10 2 20 -3 23 -11 3 -10 -2 -11 -19 -6
l-24 8 25 -21 25 -20 6 21 c7 31 -31 61 -46 36z"/>
<path d="M1776 1761 c-4 -5 -3 -17 1 -28 6 -16 5 -17 -12 -3 -10 8 -16 10 -12
3 4 -6 1 -14 -5 -17 -10 -5 -10 -7 0 -12 22 -10 13 -32 -12 -30 -21 3 -25 -2
-29 -33 -5 -45 6 -52 64 -45 32 4 55 1 77 -10 17 -9 40 -16 50 -16 28 0 35 25
8 26 -12 1 -43 11 -69 23 -51 23 -75 58 -62 88 8 17 14 63 9 63 -2 0 -5 -4 -8
-9z"/>
<path d="M1670 1744 c0 -4 8 -13 18 -20 15 -12 15 -15 2 -24 -13 -8 -13 -10 3
-10 19 0 22 13 7 41 -10 18 -30 27 -30 13z"/>
<path d="M1601 1721 c-7 -5 -9 -11 -4 -14 5 -3 15 -2 22 2 7 5 9 11 4 14 -5 3
-15 2 -22 -2z"/>
<path d="M1635 1701 c-3 -5 0 -13 6 -17 8 -5 9 -3 4 6 -6 10 -4 12 9 7 10 -4
15 -3 11 3 -8 13 -22 13 -30 1z"/>
<path d="M1543 1693 c-18 -6 -16 -42 2 -49 26 -10 34 0 22 27 -7 15 -18 24
-24 22z"/>
<path d="M2705 1670 c3 -5 11 -10 16 -10 6 0 7 5 4 10 -3 6 -11 10 -16 10 -6
0 -7 -4 -4 -10z"/>
<path d="M1434 1656 c-5 -13 -3 -21 4 -24 7 -2 12 -8 12 -13 0 -6 -5 -7 -12
-3 -7 4 -8 3 -4 -4 4 -7 17 -12 30 -12 27 0 63 35 47 45 -6 3 -11 -1 -11 -11
0 -13 -3 -14 -15 -4 -12 10 -15 9 -16 -6 0 -11 -6 -5 -14 16 -11 31 -14 33
-21 16z"/>
<path d="M2187 1659 c-9 -5 -22 -7 -29 -3 -7 5 -9 2 -6 -7 5 -12 -2 -14 -28
-11 -19 2 -34 2 -34 0 0 -22 37 -69 65 -82 31 -15 34 -20 29 -44 -3 -15 -15
-33 -25 -41 -11 -7 -19 -19 -19 -27 0 -7 -12 -14 -27 -16 -26 -3 -29 -7 -35
-57 -6 -51 -30 -93 -45 -78 -3 4 -6 34 -5 67 l2 59 -48 6 c-87 11 -115 20
-126 40 -6 11 -14 22 -17 25 -3 3 -9 12 -12 20 -4 11 -6 10 -6 -5 -1 -21 -63
-82 -98 -96 -18 -7 -23 -16 -23 -47 0 -22 -11 -59 -25 -86 l-25 -47 24 -8 c25
-10 68 -15 106 -12 24 2 24 3 -15 36 -22 19 -34 35 -27 35 19 0 14 16 -10 29
-19 10 -13 11 37 7 51 -4 62 -2 72 13 16 25 6 58 -20 65 -12 3 -18 8 -15 11
14 14 57 -9 74 -41 15 -28 16 -38 6 -54 -6 -10 -9 -27 -5 -37 6 -16 5 -16 -10
-4 -15 12 -17 11 -16 -5 0 -11 3 -27 7 -36 6 -16 10 -16 34 -4 22 12 47 13
135 4 103 -10 363 -5 449 8 l40 6 3 -97 c3 -116 -5 -133 -52 -108 -158 81
-418 112 -667 78 -58 -8 -128 -15 -155 -15 -58 0 -221 -40 -308 -75 -55 -23
-236 -142 -237 -157 0 -12 32 -18 176 -33 164 -17 177 -18 169 -6 -3 5 11 15
31 21 28 10 62 9 172 -5 204 -26 445 -16 604 24 64 16 129 39 145 50 15 11 56
25 90 30 65 10 103 25 103 41 0 14 71 85 93 93 9 3 17 13 17 22 0 8 8 23 19
34 13 13 20 40 25 93 4 41 9 88 11 104 3 34 -13 61 -49 79 -23 12 -27 12 -41
-8 -8 -12 -15 -16 -15 -9 0 7 -15 12 -40 12 -29 0 -40 4 -40 15 0 11 -12 15
-45 15 -25 0 -45 -4 -45 -10 0 -5 12 -10 26 -10 16 0 23 -4 18 -11 -3 -6 -17
-9 -30 -6 -17 3 -24 -1 -27 -17 -3 -16 -5 -15 -6 7 l-1 27 -36 -15 c-41 -17
-64 -19 -64 -6 0 5 14 11 32 15 17 3 39 13 49 22 9 8 30 19 45 24 27 8 25 8
-16 10 -35 1 -40 3 -25 10 18 8 17 9 -7 9 -59 2 -42 44 26 62 34 10 38 13 21
19 -23 9 -94 -15 -112 -38 -12 -14 -15 -14 -28 4 -9 12 -14 14 -15 6 0 -10 -4
-9 -16 3 -19 19 -18 21 19 30 17 5 27 3 27 -4 0 -17 32 -13 68 9 19 12 42 18
51 15 20 -6 51 3 51 14 0 4 -28 3 -62 -2 -66 -10 -80 -10 -113 -3 -11 2 -26 5
-33 5 -7 1 -10 5 -7 11 4 6 -2 7 -17 1 -13 -5 -22 -16 -21 -26 1 -12 -4 -14
-15 -9 -10 4 -29 7 -44 7 -15 0 -25 4 -22 8 3 5 12 9 20 9 10 0 14 7 12 18 -2
9 -10 16 -17 14 -9 -2 -11 3 -8 13 7 18 7 18 -16 4z m37 -211 c-3 -4 0 -8 5
-8 6 0 11 -4 11 -9 0 -5 -9 -7 -20 -4 -23 6 -27 30 -5 30 8 0 12 -4 9 -9z
m-644 -435 c0 -8 -4 -11 -10 -8 -5 3 -10 0 -10 -8 0 -8 -9 -17 -20 -20 -17 -4
-18 -2 -9 14 5 11 8 23 5 27 -2 4 7 8 20 8 15 1 24 -4 24 -13z m580 -7 c0 -3
-4 -8 -10 -11 -5 -3 -10 -1 -10 4 0 6 5 11 10 11 6 0 10 -2 10 -4z m-549 -24
c-7 -13 -7 -22 1 -30 9 -9 3 -15 -23 -26 -19 -9 -28 -15 -20 -16 8 0 12 -3 8
-6 -3 -3 -10 -3 -15 0 -15 9 -2 46 17 47 14 1 13 2 -1 6 -32 8 -22 19 40 42 1
1 -2 -7 -7 -17z m260 -5 c-13 -13 -26 -3 -16 12 3 6 11 8 17 5 6 -4 6 -10 -1
-17z m-477 -12 c3 -10 -1 -15 -14 -15 -10 0 -22 -4 -25 -10 -3 -5 -1 -10 4
-10 6 0 11 -6 11 -14 0 -9 -7 -12 -20 -9 -27 7 -25 37 3 56 28 20 34 20 41 2z
m546 -5 c0 -5 -4 -10 -10 -10 -5 0 -10 5 -10 10 0 6 5 10 10 10 6 0 10 -4 10
-10z m-70 -10 c-19 -13 -30 -13 -30 0 0 6 10 10 23 10 18 0 19 -2 7 -10z m260
0 c0 -5 -5 -10 -11 -10 -5 0 -7 5 -4 10 3 6 8 10 11 10 2 0 4 -4 4 -10z m-210
-14 c0 -3 -4 -8 -10 -11 -5 -3 -10 -1 -10 4 0 6 5 11 10 11 6 0 10 -2 10 -4z
m-480 -56 c0 -5 -4 -10 -10 -10 -5 0 -10 5 -10 10 0 6 5 10 10 10 6 0 10 -4
10 -10z"/>
<path d="M2578 1653 c7 -3 16 -2 19 1 4 3 -2 6 -13 5 -11 0 -14 -3 -6 -6z"/>
<path d="M1544 1571 c-3 -15 -16 -41 -28 -56 -20 -24 -31 -29 -87 -32 -35 -3
-66 -8 -69 -12 -3 -4 -13 -11 -23 -14 -26 -10 -16 -31 17 -35 20 -3 26 -8 22
-19 -3 -8 -6 -17 -6 -19 0 -2 -10 -4 -23 -4 -32 0 -40 -10 -24 -29 21 -24 30
-54 15 -48 -7 2 -28 -2 -45 -9 -28 -11 -33 -11 -33 2 0 7 3 13 8 12 13 -4 53
23 47 32 -8 13 -42 7 -64 -12 -25 -22 -78 -38 -122 -38 -22 0 -39 -4 -39 -10
0 -6 33 -10 79 -10 84 0 84 0 97 -65 6 -32 17 -54 25 -50 4 3 61 17 126 31
141 29 162 41 155 83 -3 19 -12 33 -24 37 -13 4 -18 12 -15 25 5 19 -15 44
-26 32 -4 -3 -7 -1 -7 6 0 8 -15 11 -45 10 -24 -2 -47 0 -51 3 -12 13 8 28 36
28 16 0 32 5 35 10 8 14 48 13 62 -1 16 -16 43 -3 43 21 0 22 19 27 38 8 9 -9
20 -2 49 32 38 44 52 100 26 100 -7 0 -13 -5 -13 -12 0 -6 -8 -3 -20 7 -12 11
-28 15 -41 12 -12 -3 -32 -2 -45 4 -22 8 -25 6 -30 -20z m-134 -270 c0 -13
-30 -22 -43 -14 -7 4 -2 10 13 14 14 4 26 7 28 8 1 1 2 -3 2 -8z m50 -22 c0
-14 -17 -10 -23 5 -4 10 -1 13 9 9 7 -3 14 -9 14 -14z"/>
<path d="M2610 1582 c0 -10 22 -32 32 -32 5 0 3 9 -4 20 -13 20 -28 27 -28 12z"/>
<path d="M785 1570 c-3 -5 3 -10 15 -10 12 0 18 5 15 10 -3 6 -10 10 -15 10
-5 0 -12 -4 -15 -10z"/>
<path d="M1793 1553 c-12 -12 -18 -25 -13 -28 12 -8 50 17 50 32 0 21 -14 20
-37 -4z"/>
<path d="M1928 1547 c-21 -10 -38 -23 -38 -27 0 -12 28 -26 69 -34 32 -6 33
-5 26 21 -5 23 -4 25 9 14 14 -12 16 -10 16 7 0 15 -5 19 -19 15 -11 -3 -21 1
-23 9 -2 10 -11 9 -40 -5z"/>
<path d="M2487 1544 c-14 -14 8 -34 38 -34 18 0 38 -7 45 -15 7 -8 18 -15 25
-15 7 0 24 -9 38 -20 33 -26 40 -25 26 3 -24 47 -49 65 -84 62 -22 -2 -35 2
-39 11 -5 14 -37 19 -49 8z"/>
<path d="M1095 1523 c2 -7 -2 -13 -10 -13 -10 0 -13 -10 -11 -34 3 -23 -1 -37
-10 -40 -8 -3 -14 -12 -14 -20 0 -8 -11 -23 -25 -34 -24 -19 -34 -42 -17 -42
13 0 29 15 41 38 14 26 31 21 31 -9 0 -31 23 -17 27 17 7 64 13 76 34 71 17
-5 18 -3 8 11 -7 9 -20 23 -28 30 -32 27 41 12 85 -18 63 -42 83 -52 95 -45
20 13 -70 71 -103 66 -4 0 -10 8 -13 19 -5 17 -14 20 -51 18 -30 -2 -43 -7
-39 -15z"/>
<path d="M399 1454 c-10 -12 -10 -20 -1 -35 7 -10 12 -25 12 -33 0 -23 30 -35
57 -23 17 7 23 18 23 42 0 38 -8 49 -26 34 -16 -13 -48 -4 -39 10 10 17 -12
21 -26 5z"/>
<path d="M918 1432 c-10 -2 -40 -16 -69 -31 l-51 -28 32 -12 c30 -10 35 -8 67
24 28 28 43 35 74 35 21 0 39 5 39 10 0 10 -50 11 -92 2z"/>
<path d="M508 1373 c6 -2 18 -2 25 0 6 3 1 5 -13 5 -14 0 -19 -2 -12 -5z"/>
<path d="M536 1322 c-19 -36 -20 -42 -6 -42 6 0 10 7 10 15 0 9 12 18 30 22
17 3 30 10 30 15 0 6 -6 8 -14 5 -7 -3 -18 -1 -24 5 -7 7 -15 1 -26 -20z"/>
<path d="M610 1340 c0 -5 7 -10 16 -10 8 0 12 5 9 10 -3 6 -10 10 -16 10 -5 0
-9 -4 -9 -10z"/>
<path d="M793 1323 c-18 -9 -33 -21 -33 -25 0 -5 5 -6 11 -2 8 5 8 1 0 -14 -8
-15 -8 -23 0 -27 13 -9 38 14 62 54 21 36 11 39 -40 14z"/>
<path d="M398 1323 c7 -3 16 -2 19 1 4 3 -2 6 -13 5 -11 0 -14 -3 -6 -6z"/>
<path d="M880 1264 c-47 -31 -86 -56 -87 -55 -2 0 -10 1 -18 1 -11 0 -15 -11
-15 -38 0 -21 -5 -43 -12 -50 -18 -18 -55 -14 -71 8 -14 20 -14 20 -34 -3 -28
-30 -46 -66 -40 -80 3 -7 20 -20 38 -29 57 -28 262 -105 299 -112 19 -3 45 -8
58 -10 21 -5 20 -1 -17 67 -38 68 -44 74 -113 110 l-73 37 90 1 c106 1 159 16
163 48 4 27 -35 92 -52 85 -9 -3 -16 9 -22 36 l-9 41 -85 -57z m-2 -51 c-10
-2 -26 -2 -35 0 -10 3 -2 5 17 5 19 0 27 -2 18 -5z m-38 -193 c0 -5 -2 -10 -4
-10 -3 0 -8 5 -11 10 -3 6 -1 10 4 10 6 0 11 -4 11 -10z"/>
<path d="M337 1252 c-10 -10 -17 -22 -17 -26 0 -9 30 -40 34 -35 28 42 34 57
23 68 -15 15 -21 14 -40 -7z"/>
<path d="M1119 1248 c-7 -24 -6 -49 4 -76 9 -27 9 -35 -2 -41 -7 -5 -10 -14
-7 -20 10 -16 26 -14 20 2 -3 8 2 20 11 27 25 21 16 110 -11 110 -8 0 -14 -1
-15 -2z"/>
<path d="M422 1168 c2 -6 10 -14 16 -16 7 -2 10 2 6 12 -7 18 -28 22 -22 4z"/>
<path d="M566 1141 c-3 -5 1 -14 8 -20 16 -13 32 2 21 19 -8 12 -22 13 -29 1z"/>
<path d="M493 1005 c2 -5 10 -10 17 -10 7 0 15 5 17 10 2 6 -6 11 -17 11 -11
0 -19 -5 -17 -11z"/>
<path d="M2620 914 c-19 -7 -47 -13 -62 -13 -18 -1 -28 -6 -28 -16 0 -18 12
-19 28 -3 19 19 62 -9 62 -41 0 -15 4 -21 9 -15 14 13 40 94 32 98 -3 2 -22
-2 -41 -10z"/>
<path d="M2464 879 c-19 -22 -19 -22 6 -14 14 4 32 13 40 21 12 12 12 14 -6
14 -12 0 -29 -10 -40 -21z"/>
<path d="M2536 825 c4 -8 8 -15 10 -15 2 0 4 7 4 15 0 8 -4 15 -10 15 -5 0 -7
-7 -4 -15z"/>
<path d="M2370 811 c0 -5 5 -13 10 -16 6 -3 10 -2 10 4 0 5 -4 13 -10 16 -5 3
-10 2 -10 -4z"/>
<path d="M2585 770 c-10 -11 -24 -20 -32 -20 -7 0 -13 -4 -13 -10 0 -5 -7 -7
-15 -4 -8 3 -20 2 -27 -2 -14 -9 -19 -11 -43 -13 -8 0 -15 -8 -15 -16 0 -8 -9
-15 -19 -15 -11 0 -23 -4 -26 -10 -9 -14 -45 -12 -46 3 -3 29 -5 34 -21 50
-25 25 -29 21 -26 -25 3 -36 0 -43 -14 -42 -10 1 -18 -2 -18 -6 0 -5 -9 -8
-19 -7 -15 1 -17 5 -11 17 10 19 2 60 -11 60 -5 0 -9 -9 -9 -21 0 -11 5 -17
10 -14 6 3 10 2 10 -3 0 -6 -7 -12 -15 -16 -8 -3 -15 -12 -15 -21 0 -19 -19
-20 -26 0 -4 8 -10 12 -15 9 -5 -3 -9 0 -9 5 0 6 9 16 20 23 11 7 20 17 20 22
0 5 -10 0 -23 -12 -13 -12 -26 -20 -29 -17 -3 3 -11 -1 -18 -10 -11 -13 -10
-14 5 -9 13 5 16 4 11 -5 -5 -7 -2 -10 5 -9 7 2 15 -6 17 -17 3 -16 1 -18 -9
-7 -17 16 -29 15 -29 -3 0 -20 -16 -19 -24 0 -5 14 -9 14 -33 1 -16 -8 -59
-39 -98 -70 -38 -31 -77 -56 -86 -56 -9 0 -28 14 -43 31 -23 25 -30 28 -42 18
-13 -10 -17 -10 -24 2 -8 11 -12 11 -25 -6 -13 -18 -16 -18 -25 -4 -8 13 -17
14 -57 7 -26 -5 -60 -9 -75 -9 -16 0 -28 -4 -28 -8 0 -14 -64 -20 -72 -7 -5 7
-8 5 -8 -6 0 -10 -7 -15 -17 -13 -10 2 -18 4 -18 5 0 8 -112 2 -124 -7 -18
-14 -54 -17 -65 -6 -10 10 -86 14 -86 5 0 -11 98 -29 231 -43 109 -12 385 -6
539 11 105 12 343 70 427 105 136 55 217 119 227 178 8 43 6 44 -19 17z"/>
<path d="M1565 763 c-58 -20 -55 -23 18 -23 69 0 84 9 45 26 -16 7 -35 6 -63
-3z"/>
<path d="M2400 720 c0 -5 -9 -10 -20 -10 -11 0 -20 -4 -20 -10 0 -18 35 -11
48 10 7 12 8 20 2 20 -5 0 -10 -4 -10 -10z"/>
<path d="M707 665 c24 -17 73 -37 73 -30 0 6 -76 45 -87 45 -4 0 2 -7 14 -15z"/>
<path d="M1050 527 c46 -18 112 -28 105 -17 -5 8 -30 14 -110 26 -29 4 -29 3
5 -9z"/>
</g>
</svg>
